<svg width="100" height="100" viewBox="0 0 100 100" fill="none" xmlns="http://www.w3.org/2000/svg">
<rect width="100" height="100" fill="white"/>
<path fill-rule="evenodd" clip-rule="evenodd" d="M24.7486 24.7487L35.3552 35.3554C43.1657 27.5449 55.829 27.5449 63.6395 35.3554L74.2461 24.7487C60.5778 11.0804 38.417 11.0804 24.7486 24.7487Z" fill="#EA4335"/>
<path fill-rule="evenodd" clip-rule="evenodd" d="M24.7487 24.7488L35.3553 35.3553C35.3552 35.3554 35.3552 35.3554 35.3552 35.3554C27.5447 43.1659 27.5447 55.8292 35.3552 63.6397C35.3552 63.6397 35.3553 63.6397 35.3553 63.6397L24.7487 74.2463C11.0804 60.5779 11.0804 38.4172 24.7487 24.7488Z" fill="#FBBC05"/>
<path fill-rule="evenodd" clip-rule="evenodd" d="M74.2461 74.2461L63.6395 63.6395C55.829 71.45 43.1657 71.45 35.3552 63.6395L24.7486 74.2461C38.417 87.9145 60.5778 87.9145 74.2461 74.2461Z" fill="#34A853"/>
<path fill-rule="evenodd" clip-rule="evenodd" d="M69.4975 49.4975C69.4975 54.6159 67.5448 59.7344 63.6396 63.6396L63.6395 63.6397L74.2461 74.2462C81.0803 67.4121 84.4973 58.4548 84.4973 49.4975H69.4975Z" fill="#4285F4"/>
<rect x="49.4974" y="41.9975" width="30" height="15" fill="#4285F4"/>
<rect x="54.4974" y="41.9975" width="30" height="10" fill="#4285F4"/>
</svg>
